<svg width="44" height="48" viewBox="0 0 44 48" fill="none" xmlns="http://www.w3.org/2000/svg">
<path d="M43.7332 36.2588L36.5312 16.5533V5.02514C36.5312 4.50745 36.1115 4.08764 35.5937 4.08764L31.9752 4.08745L30.7062 0.615595C30.5284 0.129219 29.9902 -0.120625 29.5038 0.0568439L18.4773 4.08689H18.2304C18.2449 3.65995 18.0909 3.22832 17.7658 2.9031L16.3567 1.49394C16.6069 1.12888 16.5705 0.626283 16.2462 0.302001C15.8801 -0.0641877 15.2866 -0.0640939 14.9203 0.302001L11.1348 4.08754H5.06014C4.54235 4.08754 4.12263 4.50726 4.12263 5.02504V9.33324L0.825534 10.5384C0.592003 10.6238 0.401877 10.7984 0.297158 11.0239C0.192346 11.2494 0.181471 11.5073 0.266783 11.7407L4.12254 22.2905V42.9745C4.12254 43.4923 4.54226 43.912 5.06004 43.912H12.0248L13.2938 47.384C13.4328 47.7642 13.7919 48 14.1744 48C14.2813 48 14.39 47.9815 14.4962 47.9428L25.5248 43.912H35.5936C36.1113 43.912 36.5311 43.4923 36.5311 42.9745V39.8893L43.1744 37.4612C43.4079 37.3758 43.598 37.2013 43.7027 36.9758C43.8076 36.7502 43.8185 36.4923 43.7332 36.2588ZM4.12263 16.8284L2.34972 11.9776L4.12263 11.3297V16.8284ZM29.2668 2.13979L29.9787 4.08745L23.9388 4.08717L29.2668 2.13979ZM12.1219 5.75264L15.0428 2.83185L16.2607 4.04976C16.0574 4.34048 15.9547 4.69373 15.9743 5.0527C15.9748 5.06189 15.9767 5.07089 15.9773 5.08008C15.9779 5.08973 15.9775 5.09939 15.9785 5.10914C15.9803 5.12901 15.9844 5.14842 15.9869 5.16811C15.9902 5.19389 15.9934 5.21967 15.9979 5.24526C16.0027 5.27208 16.0089 5.29851 16.0151 5.32505C16.0216 5.3528 16.0278 5.38055 16.0357 5.40783C16.0422 5.43042 16.0501 5.45236 16.0577 5.47458C16.0679 5.50476 16.0778 5.53486 16.0898 5.56439C16.0973 5.58286 16.1062 5.60058 16.1143 5.61876C16.1286 5.65045 16.1427 5.68214 16.1589 5.71289C16.1674 5.72873 16.177 5.74383 16.186 5.75939C16.204 5.7907 16.2218 5.82211 16.2419 5.8522C16.2525 5.86805 16.2645 5.88295 16.2757 5.89842C16.296 5.92664 16.3159 5.95505 16.338 5.98195C16.3546 6.00211 16.3731 6.02077 16.3907 6.04008C16.4094 6.0607 16.4272 6.08208 16.4471 6.10167C16.4856 6.13973 16.526 6.17583 16.5683 6.20995C16.5687 6.21033 16.5692 6.21089 16.5697 6.21127L18.2691 7.57421L16.134 9.70937L14.7712 8.01005C14.672 7.8864 14.555 7.78055 14.4264 7.69271C14.4172 7.68633 14.4086 7.67902 14.3992 7.67283C14.3917 7.66796 14.3837 7.66411 14.3761 7.65943C14.1485 7.51608 13.8863 7.42974 13.6126 7.41474C13.5835 7.41314 13.5546 7.41239 13.5256 7.41239C13.5172 7.41239 13.509 7.41324 13.5007 7.41333C13.4816 7.41361 13.4627 7.41455 13.4437 7.41549C13.4198 7.41671 13.396 7.4183 13.3723 7.42064C13.3534 7.42252 13.3345 7.42467 13.3157 7.42721C13.2921 7.43039 13.2685 7.43405 13.2451 7.43827C13.2266 7.44155 13.2082 7.44502 13.1899 7.44905C13.1662 7.45411 13.1429 7.45993 13.1197 7.46611C13.1019 7.4708 13.0842 7.47539 13.0666 7.48064C13.043 7.48777 13.0196 7.49574 12.9964 7.50399C12.9796 7.50989 12.9628 7.51552 12.9463 7.52189C12.9223 7.53127 12.8989 7.54168 12.8753 7.55218C12.8601 7.55902 12.8447 7.5653 12.8297 7.57261C12.8041 7.58499 12.7792 7.59868 12.7543 7.61236C12.742 7.61911 12.7295 7.62521 12.7174 7.63233C12.6807 7.6538 12.6448 7.67658 12.6098 7.70105L11.3916 6.48286L12.1219 5.75264ZM14.7331 45.8598L14.0212 43.912H20.0626L14.7331 45.8598ZM5.99764 42.0369V5.96264H9.25996L8.86217 6.36042C8.49608 6.72652 8.49608 7.32014 8.86217 7.68624C9.04527 7.86933 9.28517 7.96083 9.52508 7.96083C9.71024 7.96083 9.89511 7.90571 10.0541 7.79668L11.4633 9.20602C11.7273 9.47002 12.0673 9.63015 12.4341 9.66606C12.4865 9.67121 12.5393 9.67374 12.5927 9.67374C12.633 9.67374 12.673 9.67224 12.7128 9.66934C12.9229 9.65378 13.1244 9.59687 13.3091 9.50387C13.3692 9.47359 13.428 9.44021 13.4842 9.40224L14.8655 11.1244C15.0427 11.3454 15.2741 11.513 15.5332 11.6138C15.6887 11.6743 15.8542 11.7106 16.0239 11.7198C16.0531 11.7214 16.0821 11.7222 16.111 11.7222C16.1254 11.7222 16.1395 11.7205 16.1539 11.72C16.1793 11.7194 16.2046 11.7182 16.2298 11.7163C16.2586 11.7141 16.2872 11.711 16.3158 11.7073C16.3411 11.704 16.3662 11.7005 16.3913 11.696C16.4196 11.691 16.4476 11.6847 16.4755 11.6781C16.5 11.6724 16.5245 11.6667 16.5486 11.6597C16.5767 11.6517 16.6043 11.6423 16.632 11.6327C16.6552 11.6248 16.6784 11.6171 16.7011 11.608C16.7292 11.5968 16.7566 11.584 16.7841 11.5712C16.8053 11.5613 16.8269 11.552 16.8477 11.5412C16.8761 11.5265 16.9034 11.5098 16.931 11.4934C16.9498 11.4822 16.969 11.4718 16.9874 11.4597C17.0174 11.44 17.046 11.4182 17.0747 11.3965C17.0892 11.3854 17.1045 11.3755 17.1188 11.364C17.161 11.3297 17.2018 11.2933 17.2406 11.2544L17.8646 10.6304L19.1073 11.873C19.2904 12.0561 19.5303 12.1476 19.7702 12.1476C20.0101 12.1476 20.2501 12.056 20.4331 11.873C20.7992 11.5069 20.7992 10.9133 20.4331 10.5472L19.1904 9.30465L19.8144 8.68074C20.1349 8.36021 20.3045 7.91677 20.2797 7.46414C20.2549 7.01152 20.0379 6.58917 19.6842 6.30558L19.2566 5.96264H34.6561V42.0369H5.99764ZM36.5311 37.8928V22.0155L41.6502 36.022L36.5311 37.8928Z" fill="black"/>
</svg>
